# File created by Blade
# Date/Time:  Tue Jan 27 19:54:25 2015
# Frame Rate: 120.000 fps
#------------------------------------------------------
:FULLY-SPECIFIED
:DEGREES
2097
root 7.131215 32.763207 -0.010912 -5.723711 -17.685710 -14.088992
Spine 10.994008 9.256678 11.155822
Head 6.468044 -5.769473 3.337185
LeftShoulder -14.779720 -4.189003 27.813529
LeftArm 3.394915 -14.263778 -82.402685
LeftForeArm -38.568577 -0.000000 129.582024
LeftHand 1.777259 0.000000 -25.646863
LeftHandThumb1 -26.253704 0.000000 33.147579
RightShoulder -16.333249 -15.906711 -22.360327
RightArm 9.581237 -21.385647 81.286432
RightForeArm -19.102069 -0.000000 22.463177
RightHand 17.579886 -0.000000 7.210474
RightHandThumb1 -24.326973 -0.000000 -32.862282
LeftUpLeg 12.163411 12.593331 4.654283
LeftLeg 5.454341 -0.000000 -0.000000
LeftFoot -24.973032 19.778192 -17.911471
LeftToeBase 21.664732 -0.000000 -0.000000
RightUpLeg -86.829523 -12.506046 22.895581
RightLeg 112.889113 -0.000000 -0.000000
RightFoot 23.462242 -31.955661 22.947585
RightToeBase 8.845856 -0.000000 -0.000000
2098
root 7.124276 32.752868 -0.008909 -5.833964 -17.915955 -13.964673
Spine 11.046704 9.396704 11.040832
Head 6.535861 -5.639883 3.354609
LeftShoulder -14.788653 -4.164243 27.820385
LeftArm 3.394558 -14.443312 -82.396779
LeftForeArm -38.655147 -0.000000 129.563380
LeftHand 1.700430 0.000000 -25.737092
LeftHandThumb1 -26.253704 0.000000 33.147579
RightShoulder -16.312456 -15.904439 -22.369192
RightArm 9.580450 -21.424139 81.261286
RightForeArm -19.130608 -0.000000 22.360726
RightHand 17.548005 -0.000000 7.262722
RightHandThumb1 -24.326973 -0.000000 -32.862282
LeftUpLeg 12.383006 12.792850 4.582859
LeftLeg 5.286421 -0.000000 -0.000000
LeftFoot -24.897454 19.883902 -17.828418
LeftToeBase 21.525265 -0.000000 -0.000000
RightUpLeg -87.140519 -12.404661 24.375425
RightLeg 112.923284 -0.000000 -0.000000
RightFoot 23.720518 -31.997737 22.614211
RightToeBase 8.462798 -0.000000 -0.000000
2099
root 7.119278 32.742589 -0.000078 -5.948526 -18.145989 -13.840865
Spine 11.072030 9.542547 10.922267
Head 6.687011 -5.542113 3.359832
LeftShoulder -14.810398 -4.118550 27.840742
LeftArm 3.384209 -14.572982 -82.397537
LeftForeArm -38.644339 -0.000000 129.569385
LeftHand 1.595127 0.000000 -25.722828
LeftHandThumb1 -26.253704 0.000000 33.147579
RightShoulder -16.246988 -15.865892 -22.363817
RightArm 9.463983 -21.397519 81.235537
RightForeArm -19.236886 -0.000000 22.342017
RightHand 17.472756 -0.000000 7.477039
RightHandThumb1 -24.326973 -0.000000 -32.862282
LeftUpLeg 12.635874 13.027677 4.525976
LeftLeg 5.071023 -0.000000 -0.000000
LeftFoot -24.861182 19.873128 -17.890216
LeftToeBase 21.583834 -0.000000 -0.000000
RightUpLeg -87.422187 -12.274239 25.837166
RightLeg 113.007728 -0.000000 -0.000000
RightFoot 23.599936 -32.144394 22.895129
RightToeBase 8.404148 -0.000000 -0.000000
2100
root 7.114704 32.732911 0.004200 -6.010681 -18.339661 -13.728941
Spine 11.039390 9.655818 10.802103
Head 6.855228 -5.395527 3.356753
LeftShoulder -14.843704 -4.065443 27.844568
LeftArm 3.364661 -14.704382 -82.368503
LeftForeArm -38.567400 -0.000000 129.591038
LeftHand 1.571617 -0.000000 -25.637769
LeftHandThumb1 -26.253704 0.000000 33.147579
RightShoulder -16.196419 -15.888862 -22.323916
RightArm 9.428328 -21.410088 81.165169
RightForeArm -19.261350 -0.000000 22.310031
RightHand 17.494632 0.000000 7.478798
RightHandThumb1 -24.326973 -0.000000 -32.862282
LeftUpLeg 12.803584 13.216569 4.462810
LeftLeg 4.913591 -0.000000 -0.000000
LeftFoot -24.818912 19.834459 -17.938429
LeftToeBase 21.507457 -0.000000 -0.000000
RightUpLeg -87.749940 -12.201071 27.355488
RightLeg 113.069114 -0.000000 -0.000000
RightFoot 23.377272 -32.394079 23.448550
RightToeBase 7.927188 -0.000000 -0.000000
2101
root 7.113777 32.721041 0.015597 -6.107240 -18.550131 -13.586259
Spine 11.024526 9.776586 10.665167
Head 7.020317 -5.255187 3.378970
LeftShoulder -14.899704 -3.994676 27.863564
LeftArm 3.346521 -14.815552 -82.352243
LeftForeArm -38.531407 -0.000000 129.603963
LeftHand 1.571807 -0.000000 -25.569490
LeftHandThumb1 -26.253704 0.000000 33.147579
RightShoulder -16.156956 -15.950678 -22.308162
RightArm 9.441143 -21.448804 81.097028
RightForeArm -19.420114 -0.000000 22.270837
RightHand 17.494100 -0.000000 8.120377
RightHandThumb1 -24.326973 -0.000000 -32.862282
LeftUpLeg 13.018465 13.393865 4.364262
LeftLeg 4.728537 -0.000000 -0.000000
LeftFoot -24.768745 19.878859 -17.934169
LeftToeBase 21.541493 -0.000000 -0.000000
RightUpLeg -88.067139 -12.167535 28.872573
RightLeg 113.191281 -0.000000 -0.000000
RightFoot 23.316360 -32.434516 23.676983
RightToeBase 7.364361 -0.000000 -0.000000
2102
root 7.114515 32.709326 0.019720 -6.125609 -18.756895 -13.483136
Spine 10.948641 9.904221 10.574302
Head 7.182182 -5.121371 3.374825
LeftShoulder -14.956891 -3.941698 27.862700
LeftArm 3.289517 -14.880229 -82.283460
LeftForeArm -38.541701 -0.000000 129.619956
LeftHand 1.581556 -0.000000 -25.384393
LeftHandThumb1 -26.253704 0.000000 33.147579
RightShoulder -16.128254 -15.959937 -22.314397
RightArm 9.429009 -21.487709 81.041093
RightForeArm -19.293481 0.000000 22.189506
RightHand 17.455687 -0.000000 7.832422
RightHandThumb1 -24.326973 -0.000000 -32.862282
LeftUpLeg 13.130075 13.522834 4.264060
LeftLeg 4.570291 -0.000000 -0.000000
LeftFoot -24.766367 19.982696 -17.975803
LeftToeBase 21.416063 -0.000000 -0.000000
RightUpLeg -88.446012 -12.182344 30.433177
RightLeg 113.292347 -0.000000 -0.000000
RightFoot 23.628357 -32.289586 23.724063
RightToeBase 7.083804 -0.000000 -0.000000
2103
root 7.112751 32.699221 0.024544 -6.178634 -18.939942 -13.350377
Spine 10.889678 10.026548 10.422639
Head 7.361392 -5.003934 3.437607
LeftShoulder -15.013441 -3.871250 27.889558
LeftArm 3.277892 -14.982323 -82.253093
LeftForeArm -38.552301 -0.000000 129.631824
LeftHand 1.523328 -0.000000 -25.405027
LeftHandThumb1 -26.253704 0.000000 33.147579
RightShoulder -16.090765 -15.981190 -22.285765
RightArm 9.416089 -21.488996 81.002663
RightForeArm -19.271811 -0.000000 22.106087
RightHand 17.374466 0.000000 7.745617
RightHandThumb1 -24.326973 -0.000000 -32.862282
LeftUpLeg 13.260493 13.585782 4.124510
LeftLeg 4.407664 -0.000000 -0.000000
LeftFoot -24.704028 20.166781 -17.933233
LeftToeBase 21.367177 -0.000000 -0.000000
RightUpLeg -88.765423 -12.070997 31.967487
RightLeg 113.417145 -0.000000 -0.000000
RightFoot 23.421694 -32.453247 24.047342
RightToeBase 9.220458 -0.000000 -0.000000
2104
root 7.112925 32.686386 0.026692 -6.198462 -19.102631 -13.188173
Spine 10.791565 10.192558 10.232020
Head 7.503059 -4.969925 3.527670
LeftShoulder -15.066638 -3.809744 27.940309
LeftArm 3.298111 -15.074849 -82.249769
LeftForeArm -38.543376 -0.000000 129.622288
LeftHand 1.587483 -0.000000 -25.535864
LeftHandThumb1 -26.253704 0.000000 33.147579
RightShoulder -16.099468 -15.991030 -22.241909
RightArm 9.348192 -21.489538 80.994139
RightForeArm -19.291712 -0.000000 22.064364
RightHand 17.469622 0.000000 7.664100
RightHandThumb1 -24.326973 -0.000000 -32.862282
LeftUpLeg 13.329040 13.682977 3.965972
LeftLeg 4.273376 -0.000000 -0.000000
LeftFoot -24.745499 20.205372 -18.111719
LeftToeBase 21.437935 -0.000000 -0.000000
RightUpLeg -89.161788 -12.051138 33.418079
RightLeg 113.587214 -0.000000 -0.000000
RightFoot 23.540476 -32.238219 24.271067
RightToeBase 8.521890 -0.000000 -0.000000
